<?xml version="1.0" encoding="UTF-8" standalone="no"?>
<!-- Created with Inkscape (http://www.inkscape.org/) -->

<svg
      xmlns="http://www.w3.org/2000/svg"
      width="25"
      height="25"
      x="0"
      y="0"
      version="1.1"
      viewBox="0 0 25 25"
      xmlSpace="preserve"
    >
      <g fill="#006680" transform="translate(-.003) scale(.05544)">
        <path
          fill="#006680"
          d="M447.05 428l-109.6-109.6c29.4-33.8 47.2-77.9 47.2-126.1C384.65 86.2 298.35 0 192.35 0 86.25 0 .05 86.3.05 192.3c0 106 86.3 192.3 192.3 192.3 48.2 0 92.3-17.8 126.1-47.2L428.05 447c2.6 2.6 6.1 4 9.5 4 3.4 0 6.9-1.3 9.5-4 5.2-5.2 5.2-13.8 0-19zM26.95 192.3c0-91.2 74.2-165.3 165.3-165.3 91.2 0 165.3 74.2 165.3 165.3 0 91.1-74.1 165.4-165.3 165.4-91.1 0-165.3-74.2-165.3-165.4z"
        ></path>
      </g>
    </svg>