<?xml version="1.0" encoding="UTF-8" standalone="no"?>
<!-- Created with Inkscape (http://www.inkscape.org/) -->

<svg
   xmlns="http://www.w3.org/2000/svg"
   width="16.667"
   height="20"
   version="1.1"
   viewBox="0 0 4.41 5.292"
   >
   <defs>
      <linearGradient
         x1="46"
         x2="46"
         y1="12.75"
         y2="23.049"
         gradientTransform="matrix(.1323 0 0 .1323 78.26 148.296)"
         gradientUnits="userSpaceOnUse"
         spreadMethod="reflect"
      >
         <stop offset="0" stopColor="#6DC7FF"></stop>
         <stop offset="1" stopColor="#E6ABFF"></stop>
      </linearGradient>
      <linearGradient
         x1="32"
         x2="32"
         y1="18.167"
         y2="45.679"
         gradientTransform="matrix(.1323 0 0 .1323 78.26 148.296)"
         gradientUnits="userSpaceOnUse"
         spreadMethod="reflect"
      >
         <stop offset="0" stopColor="#6DC7FF"></stop>
         <stop offset="1" stopColor="#E6ABFF"></stop>
      </linearGradient>
      <linearGradient
         x1="32"
         x2="32"
         y1="6.667"
         y2="57.872"
         gradientTransform="matrix(.1323 0 0 .1323 78.26 148.296)"
         gradientUnits="userSpaceOnUse"
         spreadMethod="reflect"
      >
         <stop offset="0" stopColor="#1A6DFF"></stop>
         <stop offset="1" stopColor="#C822FF"></stop>
      </linearGradient>
   </defs>
   <g fill="#fff" stroke="none" transform="translate(-79.736 -150.682)">
      <path
         strokeWidth="0.059"
         d="M83.466 154.552h-.29l.001-.168c0-.075.062-.137.137-.137h.019c.075 0 .137.062.137.137zm-1.089-.361c-.074 0-.134.05-.134.11v.82c0 .06.06.11.134.11.074 0 .134-.05.134-.11v-.82c0-.06-.06-.11-.134-.11zm1.77-.459v1.56c0 .375-.326.681-.722.681h-2.967c-.397 0-.722-.306-.722-.68v-1.561c0-.374.325-.68.722-.68h2.967c.396 0 .721.306.721.68zm-3.491 1.73v-1.644h.367v-.243l-.98-.002v.24h.306v1.648zm1.102-1.399h-.306v.878c0 .127.007.19 0 .213-.026.068-.138.14-.182.007-.007-.024 0-.094 0-.214l-.002-.884h-.305l.001.87c0 .133-.003.232.001.278.008.08.005.173.08.226.137.1.401-.015.468-.157v.181h.245zm.981 1.005v-.73c0-.279-.21-.446-.492-.22l.001-.543h-.306l-.001 1.875.252-.004.022-.117c.322.295.525.093.524-.261zm.96-.097l-.23.001v.16a.126.126 0 01-.126.124h-.045a.126.126 0 01-.126-.124v-.338h.526v-.198c0-.145-.004-.29-.015-.372-.038-.262-.406-.304-.591-.17a.346.346 0 00-.129.174.975.975 0 00-.04.308v.436c.001.724.88.622.776 0z"
      ></path>
      <g transform="matrix(.0588 0 0 .0588 79.295 150.682)">
         <path
         fill="#fff"
         stroke="none"
         d="M54.833 32.732a3.55 3.55 0 001.254 1.584c.56.394 1.276.592 2.134.592.752 0 1.418-.203 1.998-.622.578-.417 1.065-1.04 1.463-1.871l-.099 2.046h5.813V9.74H62.82v19.24a1.907 1.907 0 01-3.811 0V9.74h-4.776v16.674c0 2.124.039 3.54.102 4.258.065.713.229 1.397.498 2.06zM37.217 18.77c0-2.373.198-4.226.591-5.562.396-1.331 1.107-2.401 2.137-3.208 1.027-.811 2.342-1.217 3.941-1.217 1.345 0 2.497.264 3.459.781.967.52 1.713 1.195 2.23 2.028a8 8 0 011.076 2.574c.195.891.291 2.235.291 4.048v6.252c0 2.293-.092 3.98-.271 5.051a8.006 8.006 0 01-1.146 3.004c-.58.924-1.329 1.615-2.237 2.056-.918.445-1.968.663-3.154.663-1.325 0-2.441-.183-3.361-.565-.923-.38-1.636-.953-2.144-1.714-.513-.762-.874-1.69-1.092-2.772-.219-1.081-.323-2.707-.323-4.874zm4.553 9.82c0 1.4 1.042 2.543 2.311 2.543 1.27 0 2.308-1.143 2.308-2.543V15.43c0-1.398-1.038-2.541-2.308-2.541-1.269 0-2.311 1.143-2.311 2.541zm-16.088 6.645h5.484l.006-18.96L37.652.033h-5.998l-3.445 12.064L24.715 0h-5.936l6.894 16.284z"
         ></path>
      </g>
   </g>
</svg>